<svg id="secure-payment" xmlns="http://www.w3.org/2000/svg" width="294.527" height="206.542" viewBox="0 0 294.527 206.542">
  <path id="Path_665" data-name="Path 665" d="M215.422,662.113a236.051,236.051,0,0,0-25.86,1.21c-3.247.367-6.425,1.174-9.679,1.5-6.5.651-12.882,1.864-19.4,2.423-5.253.451-10.527.717-15.764,1.289a54.6,54.6,0,0,1-15.218-.473,100.034,100.034,0,0,1-10.777-2.078,43.414,43.414,0,0,0-12.411-1.99c-5.894.043-11.634.048-17.275,2.128a16.929,16.929,0,0,0-5.908,3.463c-3.442,3.508-3.908,12.261-.471,15.9,5.789,6.124,18.144,8.526,26.258,8.64,8.892.124,17.529-.547,26.434-.941,8.274-.367,16.528-.888,24.815-.87,16.927.037,33.857,0,50.753-1.149,15.874-1.08,31.789-.709,47.7-.709,16.315,0,32.519.13,48.716,2.334,7.057.96,14.247,1.3,21.339,1.969,6.352.6,12.456-.012,18.783-.569a44.257,44.257,0,0,0,15.416-4.2c3.82-1.856,10.631-7.621,11.8-12.05,3.285-12.418-46.289-12.119-53.9-12.091-8.515.031-17.1.316-25.605-.014a59.468,59.468,0,0,1-10.6-1.629c-3.479-.776-6.984-.579-10.513-.9-14.713-1.36-29.459-1.161-44.219-1.161C225.033,662.142,220.228,662.1,215.422,662.113Z" transform="translate(-80.3 -488.465)" fill="#e3faff"/>
  <path id="Path_666" data-name="Path 666" d="M734.2,305.958a27.665,27.665,0,0,1-3.6-3.634c-2.837-3.415-5.04-7.309-7.74-10.832a.693.693,0,0,1-.2-.445.639.639,0,0,1,.167-.335c1.059-1.327,4.57-3.368,6.361-3.041.919.168,1.345,1.175,1.97,2.023l4.42,5.994,3.8-11.652a23.687,23.687,0,0,1,2.169-5.2,1.065,1.065,0,0,1,1.836-.287,11.242,11.242,0,0,1,4.467,6.857,19.227,19.227,0,0,1-.132,6.757,69.7,69.7,0,0,1-4.82,16.783,1.383,1.383,0,0,1-.355.556,1.344,1.344,0,0,1-1.117.118A16.652,16.652,0,0,1,734.2,305.958Z" transform="translate(-522.925 -223.903)" fill="#d1e7f5"/>
  <path id="Path_667" data-name="Path 667" d="M717.519,289.49c.148,0,.3.008.444.014a7.164,7.164,0,0,1,3.619.843,1.651,1.651,0,0,1,.886,1.759,2.8,2.8,0,0,1-.776.951c-1.875,1.9,3.092,5.382.689,7.377a3.233,3.233,0,0,1-1.037.66,2.684,2.684,0,0,1-.991.074c-.26-.017-.674.024-.849-.185a4.444,4.444,0,0,1-.316-1.249l-.635-2.508c-.207-.82-.521-1.767-1.256-2.031a3.536,3.536,0,0,1-.486-.157,1.442,1.442,0,0,1-.432-.415c-.614-.794-2.119-2.679-1.738-3.758a2.092,2.092,0,0,1,1.408-1.214A4.77,4.77,0,0,1,717.519,289.49Z" transform="translate(-517.352 -231.708)" fill="#c9a98d"/>
  <g id="Group_609" data-name="Group 609" transform="translate(205.37 111.276)">
    <g id="Group_608" data-name="Group 608" transform="translate(4.585 67.595)">
      <path id="Path_668" data-name="Path 668" d="M779.013,688.728l-2.575-.144a62.891,62.891,0,0,1-.511-9.668c1.19.652,2.84.252,3.063,2.475C779.062,682.111,778.843,688.718,779.013,688.728Z" transform="translate(-769.566 -678.916)" fill="#9ea6ad"/>
      <path id="Path_669" data-name="Path 669" d="M762.422,705.18a1.556,1.556,0,0,0-1.082.8,5,5,0,0,1-.459.785,1.483,1.483,0,0,1-.656.377,14.006,14.006,0,0,0-2.983,1.136,4.1,4.1,0,0,1-1.208.486.766.766,0,0,0-.363.144.61.61,0,0,0-.158.446,1.837,1.837,0,0,0,1.035,1.588c.693.359,1.5.41,2.216.721a4.54,4.54,0,0,0,2.623.223,17.907,17.907,0,0,0,5.08-2.052.821.821,0,0,0,.386-.33,1.526,1.526,0,0,0,.115-.664c.029-1.3.1-3.279-1.213-3.292-.558-.006-1.075.454-1.674.4C763.589,705.906,762.8,705.129,762.422,705.18Z" transform="translate(-755.511 -697.012)" fill="#9ea6ad"/>
    </g>
    <path id="Path_670" data-name="Path 670" d="M741.36,493.2a15.1,15.1,0,0,0-.1,8.015l6.911,36.714,5.75-.165a16.132,16.132,0,0,0,3.26-.939,14.673,14.673,0,0,0,.091-1.991c-.78-14.657-2.578-25.806-1.247-38.674.335-3.235,2.278-5.305,3.977-8.043,5.772-9.3,7.216-17.292,9.93-23.474.172-.391-15.741-2.827-16.528-2.948-2-.306-3.716-.35-4.91,1.572-1.319,2.124-1.567,5.253-2.116,7.648q-1.207,5.268-2.395,10.54Q742.658,487.32,741.36,493.2Z" transform="translate(-740.767 -461.532)" fill="#9ea6ad"/>
  </g>
  <g id="Group_611" data-name="Group 611" transform="translate(223.98 107.647)">
    <g id="Group_610" data-name="Group 610" transform="translate(5.607 72.452)">
      <path id="Path_671" data-name="Path 671" d="M840.788,692.646l-2.769.114a62.653,62.653,0,0,1-1.533-9.9c1.339.549,3.063-.03,3.529,2.234C840.166,685.833,840.606,692.654,840.788,692.646Z" transform="translate(-830.939 -682.865)" fill="#9ea6ad"/>
      <path id="Path_672" data-name="Path 672" d="M825.615,709.7a1.66,1.66,0,0,0-1.076.931,5.11,5.11,0,0,1-.41.854,1.6,1.6,0,0,1-.664.454,15.364,15.364,0,0,0-3.075,1.473,4.48,4.48,0,0,1-1.243.623.838.838,0,0,0-.373.186.614.614,0,0,0-.124.474,1.906,1.906,0,0,0,1.269,1.529c.778.3,1.647.269,2.444.516a5.06,5.06,0,0,0,2.829-.038,19.6,19.6,0,0,0,5.224-2.629.871.871,0,0,0,.38-.379,1.532,1.532,0,0,0,.056-.7c-.1-1.34-.233-3.383-1.634-3.264-.6.051-1.1.577-1.75.585C826.937,710.326,826.014,709.606,825.615,709.7Z" transform="translate(-818.646 -701.349)" fill="#9ea6ad"/>
    </g>
    <path id="Path_673" data-name="Path 673" d="M805.208,503.421c1.621,8.541,4.016,17.016,4.133,25.709a1.826,1.826,0,0,0,.279,1.165,1.7,1.7,0,0,0,1.095.47,15.322,15.322,0,0,0,7.644-.8c.258-4.528-.836-9.009-1.339-13.516a102.062,102.062,0,0,1-.046-16.746c.725-13.627,5.581-27.8,5.094-41.437-.092-2.583-4.259-4.682-5.148-7.108a35.347,35.347,0,0,1-16.3-1.3c.068,2.8.566,5.309.87,8.042.4,3.6.217,7.343.349,10.963.27,7.394.688,14.789,1.521,22.143C803.826,495.167,804.428,499.31,805.208,503.421Z" transform="translate(-800.614 -449.861)" fill="#9ea6ad"/>
  </g>
  <path id="Path_674" data-name="Path 674" d="M768.018,265.625a9.19,9.19,0,0,1,3.1,2,37.209,37.209,0,0,1,6.216,9.621,68.641,68.641,0,0,1,6.256,22.014c1.4,12.759-.514,25.694-3.1,38.285q-23.419-7.665-47.246-13.885c1.706.445,7.4-9.05,8.239-10.484,2.191-3.727,4.746-8.46,5.205-12.88.813-7.82-.81-15.694.293-23.5.419-2.968.274-5.636,2.4-7.894a14.919,14.919,0,0,1,8.718-4.422A20.571,20.571,0,0,1,768.018,265.625Z" transform="translate(-530.212 -214.359)" fill="#00b5ee"/>
  <g id="Group_614" data-name="Group 614" transform="translate(220.557 23.252)">
    <g id="Group_613" data-name="Group 613" transform="translate(0.606 5.832)">
      <g id="Group_612" data-name="Group 612">
        <path id="Path_675" data-name="Path 675" d="M797.853,220.6a23.8,23.8,0,0,0,3.66,0c1.114-.007,1.662-.327,1.85-1.521a9.76,9.76,0,0,1,1.289-3.608c.55-.908,1.392-1.535,1.977-2.41a13.653,13.653,0,0,0,1.291-2.459,19.663,19.663,0,0,0,1.169-4.378,15.242,15.242,0,0,0-.277-3.418,6.7,6.7,0,0,0-.526-2.559,5.626,5.626,0,0,0-3.709-2.513c-4.219-1.176-12.247-.77-12.923,4.825a22.861,22.861,0,0,0-.044,3.706c.11,2.608-.588,7.417,2.282,8.879.809.412,1.813.416,2.527.978C797.679,217.119,797.3,219.1,797.853,220.6Z" transform="translate(-791.557 -197.204)" fill="#c9a98d"/>
      </g>
    </g>
    <path id="Path_676" data-name="Path 676" d="M816.057,185.748a9.43,9.43,0,0,1-2.79-2.647,7.325,7.325,0,0,0-2.929-2.463,19.318,19.318,0,0,0-3.435-.475,26.028,26.028,0,0,1-3.5-1.161,11.089,11.089,0,0,0-9.93,1.507c-1.628,1.216-4.481,4.23-3.753,6.531a1.863,1.863,0,0,0,1.026,1.133c.641.275,1.439.086,2.051.4a2.381,2.381,0,0,1,.9,1.071,8.233,8.233,0,0,0,2.046,2.655,7.161,7.161,0,0,0,3.095,1.006,1.376,1.376,0,0,0,.719-.012c.328-.128.5-.476.717-.754a1.715,1.715,0,0,1,1.793-.663,1.162,1.162,0,0,1,.685,1.623c-.374.58-1.2.582-1.889.595-.21,0-.472.054-.525.258a.508.508,0,0,0,.128.391l2.493,3.647c.507.741,1.485,3.125,2.6,2.31,1.881-1.376,2.408-3.635,4.153-4.955a18.238,18.238,0,0,0,2.232-2c1.318-1.392,2.189-3.141,3.744-4.3.588-.438,1.279-.731,1.874-1.16a4.893,4.893,0,0,0,1.925-3.019A2.738,2.738,0,0,1,816.057,185.748Z" transform="translate(-789.608 -178.449)" fill="#1a3151"/>
  </g>
  <g id="Group_636" data-name="Group 636" transform="translate(188.892 60.315)">
    <g id="Group_615" data-name="Group 615">
      <path id="Path_677" data-name="Path 677" d="M756.014,353.84l-66.094-9.789a2.533,2.533,0,0,1-2.119-2.876l6.127-41.37a2.533,2.533,0,0,1,2.862-2.138l66.094,9.788A2.534,2.534,0,0,1,765,310.332l-6.127,41.37A2.534,2.534,0,0,1,756.014,353.84Z" transform="translate(-687.773 -297.64)" fill="#3ababa"/>
    </g>
    <g id="Group_616" data-name="Group 616" transform="translate(2.602 29.602)">
      <path id="Path_678" data-name="Path 678" d="M696.141,408.882l64.948,9.619a2.534,2.534,0,0,0,2.862-2.138l3.484-23.523C747.135,409.283,711.979,409.629,696.141,408.882Z" transform="translate(-696.141 -392.839)" fill="#2aa09d"/>
    </g>
    <g id="Group_617" data-name="Group 617" transform="translate(6.373 16.168)">
      <rect id="Rectangle_1016" data-name="Rectangle 1016" width="12.568" height="9.414" rx="2.664" transform="translate(1.379 0) rotate(8.424)" fill="#ffd559"/>
    </g>
    <g id="Group_618" data-name="Group 618" transform="translate(6.909 21.845)">
      <path id="Path_679" data-name="Path 679" d="M722.137,371.7l.564-3.805c-3.46,2.458-9.217,3.057-12.707,3.181a1.668,1.668,0,0,0,1.123.7l9.112,1.349A1.689,1.689,0,0,0,722.137,371.7Z" transform="translate(-709.994 -367.892)" fill="#c5a45d"/>
    </g>
    <g id="Group_623" data-name="Group 623" transform="translate(5.225 28.629)">
      <g id="Group_619" data-name="Group 619" transform="translate(0)">
        <rect id="Rectangle_1017" data-name="Rectangle 1017" width="14.53" height="4.647" transform="translate(0.681 0) rotate(8.424)" fill="#ededed"/>
      </g>
      <g id="Group_620" data-name="Group 620" transform="translate(16.032 2.374)">
        <rect id="Rectangle_1018" data-name="Rectangle 1018" width="14.53" height="4.647" transform="translate(0.681 0) rotate(8.424)" fill="#ededed"/>
      </g>
      <g id="Group_621" data-name="Group 621" transform="translate(32.065 4.749)">
        <rect id="Rectangle_1019" data-name="Rectangle 1019" width="14.53" height="4.647" transform="translate(0.681 0) rotate(8.424)" fill="#ededed"/>
      </g>
      <g id="Group_622" data-name="Group 622" transform="translate(48.097 7.123)">
        <rect id="Rectangle_1020" data-name="Rectangle 1020" width="14.53" height="4.647" transform="translate(0.681 0) rotate(8.424)" fill="#ededed"/>
      </g>
    </g>
    <g id="Group_629" data-name="Group 629" transform="translate(52.845 12.894)">
      <g id="Group_624" data-name="Group 624">
        <path id="Path_680" data-name="Path 680" d="M862.618,343.537a4.346,4.346,0,0,1,2.367-3.261,4.272,4.272,0,0,0-2.312-1.122,4.344,4.344,0,0,0-1.273,8.594,4.271,4.271,0,0,0,2.538-.4A4.345,4.345,0,0,1,862.618,343.537Z" transform="translate(-857.721 -339.107)" fill="#b5d6ca"/>
      </g>
      <g id="Group_625" data-name="Group 625" transform="translate(6.217 0.718)">
        <path id="Path_681" data-name="Path 681" d="M881.245,345.847a4.345,4.345,0,0,1,2.367-3.262,4.282,4.282,0,0,0-4.849-.718,4.357,4.357,0,0,1-1.047,7.069,4.281,4.281,0,0,0,4.849.718A4.344,4.344,0,0,1,881.245,345.847Z" transform="translate(-877.716 -341.417)" fill="#d1e7f5"/>
      </g>
      <g id="Group_626" data-name="Group 626" transform="translate(4.849 1.168)">
        <path id="Path_682" data-name="Path 682" d="M877.051,346.672a2.273,2.273,0,1,0-2.367,3.262A4.344,4.344,0,0,0,877.051,346.672Z" transform="translate(-873.316 -342.865)" fill="#145566"/>
      </g>
      <g id="Group_627" data-name="Group 627" transform="translate(11.066 1.437)">
        <path id="Path_683" data-name="Path 683" d="M896.894,343.774a4.272,4.272,0,0,0-2.537.4,4.357,4.357,0,0,1-1.047,7.069,4.271,4.271,0,0,0,2.312,1.122,4.344,4.344,0,0,0,1.273-8.594Z" transform="translate(-893.31 -343.727)" fill="#b5d6ca"/>
      </g>
      <g id="Group_628" data-name="Group 628" transform="translate(9.698 1.886)">
        <path id="Path_684" data-name="Path 684" d="M892.646,348.982a2.273,2.273,0,1,0-2.367,3.261A4.346,4.346,0,0,0,892.646,348.982Z" transform="translate(-888.91 -345.174)" fill="#1a3151"/>
      </g>
    </g>
    <g id="Group_630" data-name="Group 630" transform="translate(36.599 41.248)">
      <rect id="Rectangle_1021" data-name="Rectangle 1021" width="30.737" height="1.408" transform="translate(0.206 0) rotate(8.424)" fill="#fff"/>
    </g>
    <g id="Group_631" data-name="Group 631" transform="translate(43.342 45.307)">
      <rect id="Rectangle_1022" data-name="Rectangle 1022" width="23.472" height="1.408" transform="matrix(0.989, 0.147, -0.147, 0.989, 0.206, 0)" fill="#c5c6c7"/>
    </g>
    <g id="Group_632" data-name="Group 632" transform="translate(6.595 17.064)">
      <path id="Path_685" data-name="Path 685" d="M722.3,355.3l.049-.334-6.05-.9.223-1.5-.332-.049-.223,1.5-6.05-.9-.05.334,6.05.9-.212,1.434-6.05-.9-.049.334,6.05.9,0,.012.18.013c.062.006,1.5.125,1.463,1.248a.861.861,0,0,1-.294.571,1.825,1.825,0,0,1-1.46.256L709.3,357.3l-.049.334,6.08.9-.216,1.46-6.08-.9-.049.334,6.08.9-.223,1.5.332.049.223-1.5,6.021.892.049-.334-6.021-.892.217-1.465a2.013,2.013,0,0,0,1.56-.355,1.2,1.2,0,0,0,.388-.652l4.261.631.049-.334-4.292-.636a1.707,1.707,0,0,0-1.589-1.4l.211-1.428Z" transform="translate(-708.984 -352.517)" fill="#fff"/>
    </g>
    <g id="Group_633" data-name="Group 633" transform="translate(41.053 42.467)">
      <path id="Path_686" data-name="Path 686" d="M845.75,438.891l.206-1.393-22.172-3.284q-1.99.453-3.986.833Z" transform="translate(-819.798 -434.214)" fill="#c5c6c7"/>
    </g>
    <g id="Group_634" data-name="Group 634" transform="translate(53.322 36.918)">
      <path id="Path_687" data-name="Path 687" d="M874.311,417.331l-6.5-.962a77.8,77.8,0,0,1-8.534,3.288l-.021.142,14.373,2.129Z" transform="translate(-859.257 -416.369)" fill="#e0e0e0"/>
    </g>
    <g id="Group_635" data-name="Group 635" transform="translate(5.858 0.541)">
      <path id="Path_688" data-name="Path 688" d="M707.676,301.545l-1.065,7.191c.641-3.026,3.085-9.454,12.216-8.1l-8.289-1.228A2.534,2.534,0,0,0,707.676,301.545Z" transform="translate(-706.611 -299.379)" fill="#30a09d"/>
    </g>
  </g>
  <path id="Path_689" data-name="Path 689" d="M882.514,195.441q-.255.052-.509.112a.785.785,0,0,0-.29.111.77.77,0,0,0-.192.236,12.41,12.41,0,0,0-1.23,3.11c-.118.408-.15.44.1.8.28.4.61.787.925,1.165.235.628.5,1.248.676,1.894.457,1.636-.315,5.576,1.776,6.079a3.235,3.235,0,0,0,1.222.134,2.687,2.687,0,0,0,.922-.371c.226-.13.615-.276.681-.541a4.447,4.447,0,0,0-.267-1.26l-.537-2.531c-.175-.827-.312-1.816.232-2.377a3.524,3.524,0,0,0,.367-.355,1.44,1.44,0,0,0,.2-.563,10.5,10.5,0,0,0,.235-2.261c-.012-.695-.456-.973-.889-1.438-.452-.485-.581-1.162-.983-1.678a1.492,1.492,0,0,0-1.581-.427Q882.946,195.352,882.514,195.441Z" transform="translate(-631.477 -166.764)" fill="#c9a98d"/>
  <path id="Path_690" data-name="Path 690" d="M857.955,248.863c-.042-1.813-.113-3.66-.068-5.555A56.916,56.916,0,0,0,856,227.443a15.718,15.718,0,0,0-6.729.9c.3,5.935.363,11.966-2.044,17.5-.1.222-.236.47-.476.507s-.437-.148-.6-.321c-1.578-1.688-2.89-3.684-4.833-4.935s-4.85-1.469-6.328.307a5.207,5.207,0,0,0-.8,4.223,15.76,15.76,0,0,0,2.792,6.183,30.418,30.418,0,0,0,7.461,7.512,51.609,51.609,0,0,1,5.922,4.233,3.864,3.864,0,0,0,1.668,1.145c1.235.276,2.314-.847,3-1.912C857.98,258.21,858.066,253.654,857.955,248.863Z" transform="translate(-599.695 -188.918)" fill="#00b5ee"/>
  <g id="Group_641" data-name="Group 641" transform="translate(238.855 0.914)">
    <g id="Group_640" data-name="Group 640">
      <g id="Group_639" data-name="Group 639">
        <g id="Group_637" data-name="Group 637" transform="translate(4.571)">
          <path id="Path_691" data-name="Path 691" d="M884.756,127.3H881.77V117.42a7.816,7.816,0,1,0-15.632,0V127.3h-2.986V117.42a10.8,10.8,0,1,1,21.6,0Z" transform="translate(-863.152 -106.608)" fill="#1a3151"/>
        </g>
        <g id="Group_638" data-name="Group 638" transform="translate(0 16.005)">
          <path id="Rectangle_1023" data-name="Rectangle 1023" d="M3.727,0h23.3a3.724,3.724,0,0,1,3.724,3.724V17.08a3.727,3.727,0,0,1-3.727,3.727H3.724A3.724,3.724,0,0,1,0,17.083V3.727A3.727,3.727,0,0,1,3.727,0Z" fill="#ffd559"/>
        </g>
      </g>
    </g>
    <path id="Path_692" data-name="Path 692" d="M879.688,196.163V184.834c-9.366,7.932-22.871,10.912-30.524,12.006a1.154,1.154,0,0,0,.936.482h28.43A1.158,1.158,0,0,0,879.688,196.163Z" transform="translate(-848.942 -160.51)" fill="#eab531"/>
    <path id="Path_693" data-name="Path 693" d="M894.8,175.824a2.541,2.541,0,1,0-4.052,2.041l-.809,5.75h4.639l-.808-5.75A2.538,2.538,0,0,0,894.8,175.824Z" transform="translate(-876.888 -152.549)" fill="#1a3151"/>
    <path id="Path_694" data-name="Path 694" d="M851.569,162.054v3.981c.105-1.691.918-5.37,6-5.37h-4.616A1.392,1.392,0,0,0,851.569,162.054Z" transform="translate(-850.6 -143.857)" fill="#f7db5e"/>
    <path id="Path_695" data-name="Path 695" d="M890.431,193.774s3.443-.974,3.831-5.75l.808,5.75Z" transform="translate(-877.378 -162.708)" fill="#1a3151"/>
  </g>
  <path id="Path_696" data-name="Path 696" d="M726.269,296.484a1.3,1.3,0,0,1-.575-1.292c.05-.293.2-.559.281-.845a.832.832,0,0,0-.148-.834c-.338-.311-1.011-.142-1.215-.553-.155-.311.124-.663.409-.861,1.321-.916,3.968-.626,4.111,1.365C729.218,294.666,727.729,297.406,726.269,296.484Z" transform="translate(-524.234 -233.165)" fill="#c9a98d"/>
  <g id="Group_643" data-name="Group 643" transform="translate(35.525 100.055)">
    <g id="Group_642" data-name="Group 642" transform="translate(7.551 74.269)">
      <path id="Path_697" data-name="Path 697" d="M228.338,674.082a15.931,15.931,0,0,1-2.9.3,49.893,49.893,0,0,1-1.273-10.094c1.865,1.271,2.869.022,3.567,3.1C227.956,668.38,227.779,672.621,228.338,674.082Z" transform="translate(-222.505 -664.29)" fill="#e5d1bd"/>
      <path id="Path_698" data-name="Path 698" d="M221.144,691.58c-1.2-.126-.808,2.579-.665,3.2a4.764,4.764,0,0,1,.217,1.129,3.079,3.079,0,0,1-.366,1.206l-1.115,2.414a3.618,3.618,0,0,0-.377,1.128,2.125,2.125,0,0,0,1.653,2.15c3.338.775,5.165-3.521,5.223-6.078.009-.392-.011-.784-.03-1.175-.04-.81.134-2.64-.358-3.32-.573-.794-1.5.109-2.295-.049C222.3,692.039,221.631,691.631,221.144,691.58Z" transform="translate(-218.83 -683.091)" fill="#1a3151"/>
    </g>
    <path id="Path_699" data-name="Path 699" d="M212.615,450.17c-.929,8.218-2.325,16.375-2.221,24.715.128,10.3-1.181,20.7-.659,30.928a24.811,24.811,0,0,1-3.645.727c-1.411.173-3.678.334-4.539-1.043a9.334,9.334,0,0,1-.631-2.819c-.5-2.577-.937-5.166-1.371-7.755-1.226-7.324-2.641-14.7-3.049-22.112-.429-7.8-.924-15.614-1.52-23.374-.308-4.01-.464-8.033-.429-12.055.009-1.037.127-11.726.651-11.768a48.575,48.575,0,0,1,18.3,1.929,2.48,2.48,0,0,1,1.466.909,2.288,2.288,0,0,1,.215,1.52c-.428,5.018-1.448,9.875-1.984,14.9C213.013,446.622,212.818,448.372,212.615,450.17Z" transform="translate(-194.547 -425.443)" fill="#9ea6ad"/>
  </g>
  <g id="Group_645" data-name="Group 645" transform="translate(50.414 99.657)">
    <g id="Group_644" data-name="Group 644" transform="translate(6.83 74.269)">
      <path id="Path_700" data-name="Path 700" d="M265.862,672.8a15.936,15.936,0,0,0,2.9.3,49.89,49.89,0,0,0,1.273-10.094c-1.865,1.271-2.869.022-3.567,3.1C266.244,667.1,266.421,671.342,265.862,672.8Z" transform="translate(-265.405 -663.011)" fill="#e5d1bd"/>
      <path id="Path_701" data-name="Path 701" d="M268.669,689.463c.118,1.857,1.7,3.764,2.618,5.383a1.145,1.145,0,0,1-.092,1.506,2.389,2.389,0,0,1-.912.973,2.28,2.28,0,0,1-1.308.068q-1.1-.17-2.18-.44a1.492,1.492,0,0,1-.513-.2,1.54,1.54,0,0,1-.4-.512,5.614,5.614,0,0,1-1.073-2.779,17.111,17.111,0,0,0-.257-3.494c-.139-.549-.322-1.25.134-1.585.353-.259,1.047.024,1.451.064a5.451,5.451,0,0,1,2.038.316.943.943,0,0,1,.362.274A.79.79,0,0,1,268.669,689.463Z" transform="translate(-264.393 -680.419)" fill="#1a3151"/>
    </g>
    <path id="Path_702" data-name="Path 702" d="M245.031,448.891c.929,8.218,2.325,16.375,2.221,24.715-.128,10.3,1.181,20.7.659,30.929a24.828,24.828,0,0,0,3.645.727c1.411.173,3.679.334,4.539-1.043a9.344,9.344,0,0,0,.631-2.819c.5-2.577.937-5.166,1.371-7.754,1.226-7.324,2.641-14.7,3.049-22.112.429-7.8.923-15.614,1.52-23.374.308-4.011.464-8.033.43-12.055-.009-1.036-.127-11.726-.651-11.768a48.569,48.569,0,0,0-18.3,1.929,2.478,2.478,0,0,0-1.465.909,2.286,2.286,0,0,0-.215,1.52c.428,5.018,1.448,9.875,1.984,14.9C244.633,445.343,244.828,447.094,245.031,448.891Z" transform="translate(-242.429 -424.164)" fill="#9ea6ad"/>
  </g>
  <g id="Group_649" data-name="Group 649" transform="translate(27.444 24.54)">
    <g id="Group_648" data-name="Group 648" transform="translate(0 0)">
      <g id="Group_647" data-name="Group 647" transform="translate(14.022 7.29)">
        <g id="Group_646" data-name="Group 646" transform="translate(0 4.087)">
          <path id="Path_703" data-name="Path 703" d="M218.724,238.964a1.286,1.286,0,0,0,.265.314,2.812,2.812,0,0,0,1.618.63,6.98,6.98,0,0,0,2.27-.3c1-.257.931-.85,1.02-1.781.049-.509.067-1.02.074-1.531,0-.28-.167-1.272,0-1.479.112-.14.606-.126.814-.252a2.379,2.379,0,0,0,.779-.877,6.677,6.677,0,0,0,.584-1.734l.738-3.108a16.169,16.169,0,0,0,.538-3.214c.051-1.639-.356-3.923-1.661-5.038A7.369,7.369,0,0,0,221.4,219.2a8.9,8.9,0,0,0-5.693,1.526,4.762,4.762,0,0,0-1.651,1.849,7.7,7.7,0,0,0-.265,4.033q.213,1.887.425,3.774c.163,1.447.448,3.108,1.585,3.827.6.382,1.364.424,1.892.928a3.768,3.768,0,0,1,.763,2.492A3.11,3.11,0,0,0,218.724,238.964Z" transform="translate(-213.653 -219.179)" fill="#eacdb0"/>
        </g>
        <path id="Path_704" data-name="Path 704" d="M235.72,213.2a2.139,2.139,0,0,1,.193.358c.274.655.164,1.42.433,2.076.425,1.041,1.706,1.6,1.963,2.7.21.9-.355,1.795-.35,2.715.006,1,.706,1.912.669,2.907a6.549,6.549,0,0,1-.971,2.825c.146-.223,1.587-.237,1.946-.488a1.513,1.513,0,0,0,.734-1.215,12.071,12.071,0,0,1,.189-1.8,18.842,18.842,0,0,0,1.088-2.156c.249-1.1-.4-2.2-.423-3.333-.039-1.708,1.333-3.4.7-4.99-.373-.93-1.333-1.479-1.905-2.3a12.934,12.934,0,0,1-.945-2.072,2.537,2.537,0,0,0-1.574-1.54,12.263,12.263,0,0,0-1.264-.069,15.517,15.517,0,0,1-2.058-.737c-1.009-.272-2.69.836-3.215,1.71s-.188,1.556.444,2.255C232.422,211.207,234.828,211.86,235.72,213.2Z" transform="translate(-225.378 -206.037)" fill="#1a3151"/>
      </g>
      <path id="Path_705" data-name="Path 705" d="M196.208,206.284a18.947,18.947,0,0,0-1.786,1.373,5.582,5.582,0,0,0-1.041,4.1c.047,1.289-.445,2.469-.221,3.8a3.29,3.29,0,0,0,1.357,2.269c.955.605,2.4.624,2.869,1.651.514,1.115-.58,2.628.2,3.576.431.523,1.213.554,1.8.887a5,5,0,0,1,1.457,1.707,2.292,2.292,0,0,0,1.8,1.205,6.3,6.3,0,0,0-.62-3.079c-.324-.593-1.235-1.668-.631-2.37.373-.576,1.322-.815,1.3-1.5a1.584,1.584,0,0,0-.443-.839,3.942,3.942,0,0,1-.514-3.558,5.126,5.126,0,0,1,2.376-2.777c1.272-.717,1.041-1.025,1.343-2.3.279-1.178.918-1.49,1.932-1.977a2.2,2.2,0,0,0,1.486-1.587,2.55,2.55,0,0,0,.064-2.132,4.323,4.323,0,0,0-1.407-1.277,5.613,5.613,0,0,0-3.676-1.337c-.734.1-1.407.49-2.143.578-.491.059-.988-.02-1.482,0a3.932,3.932,0,0,0-2.363.879c-.655.548-.6,1.076-.939,1.816A2.567,2.567,0,0,1,196.208,206.284Z" transform="translate(-185.47 -196.027)" fill="#1a3151"/>
      <path id="Path_706" data-name="Path 706" d="M181.977,187.946c.079-.808-.069-1.844-.849-2.066-.428-.122-.886.07-1.326.009-.938-.131-1.324-1.233-1.86-2.013a.7.7,0,0,0-.308-.284,1.138,1.138,0,0,0-.6.053c-.915.17-1.672-.7-2.561-.971a2.184,2.184,0,0,0-2.665,1.539c-.1.461-.051.947-.147,1.41-.39,1.877-3.044,2.831-2.992,4.748.035,1.3,1.377,2.454.96,3.681-.266.785-1.218,1.368-1.054,2.18a1.143,1.143,0,0,0,1.22.805,2.3,2.3,0,0,0,1.381-.738c.6-.6,1.036-1.338,1.6-1.964a2.885,2.885,0,0,1,2.192-1.1c.818.05,1.592.636,2.39.45.638-.148,1.081-.754,1.7-.956a5.975,5.975,0,0,1,1.828,0c.613,0,1.344-.367,1.322-.979a1.543,1.543,0,0,1-.019-.443c.106-.4.781-.422.884-.826-.35-.472-.789-.267-1.057-.9A3.54,3.54,0,0,1,181.977,187.946Z" transform="translate(-168.559 -182.591)" fill="#1a3151"/>
    </g>
  </g>
  <g id="Group_650" data-name="Group 650" transform="translate(53.153 34.917)">
    <path id="Path_707" data-name="Path 707" d="M296.716,216.155q-.24.049-.478.105a.735.735,0,0,0-.272.1.721.721,0,0,0-.18.221,11.652,11.652,0,0,0-1.155,2.92c-.111.383-.14.413.1.755.263.38.573.739.869,1.095.22.59.465,1.171.635,1.778.429,1.536-.3,5.235,1.668,5.708a3.037,3.037,0,0,0,1.147.126,2.525,2.525,0,0,0,.866-.348c.212-.122.577-.259.639-.508a4.176,4.176,0,0,0-.251-1.183l-.5-2.376c-.165-.777-.293-1.7.218-2.232a3.326,3.326,0,0,0,.344-.334,1.35,1.35,0,0,0,.192-.528,9.886,9.886,0,0,0,.221-2.123c-.011-.652-.428-.914-.835-1.35-.424-.456-.546-1.091-.923-1.576a1.4,1.4,0,0,0-1.484-.4Q297.121,216.072,296.716,216.155Z" transform="translate(-281.082 -215.963)" fill="#00b5ee"/>
    <path id="Path_708" data-name="Path 708" d="M273.656,266.314c-.039-1.7-.106-3.437-.064-5.216a53.418,53.418,0,0,0-1.769-14.9,14.753,14.753,0,0,0-6.318.848c.282,5.572.341,11.235-1.919,16.433-.091.209-.221.442-.447.476s-.41-.139-.562-.3c-1.481-1.585-2.714-3.459-4.538-4.634s-4.553-1.379-5.942.289a4.889,4.889,0,0,0-.747,3.965,14.807,14.807,0,0,0,2.621,5.806,28.566,28.566,0,0,0,7.006,7.053,48.511,48.511,0,0,1,5.561,3.974,3.628,3.628,0,0,0,1.566,1.075c1.16.258,2.173-.8,2.815-1.8C273.68,275.09,273.761,270.813,273.656,266.314Z" transform="translate(-251.241 -236.764)" fill="#00b5ee"/>
  </g>
  <g id="Group_651" data-name="Group 651" transform="translate(44.024 0)">
    <circle id="Ellipse_81" data-name="Ellipse 81" cx="30.421" cy="30.421" r="30.421" transform="translate(0 43.022) rotate(-45)" fill="#ffd559"/>
  </g>
  <g id="Group_652" data-name="Group 652" transform="translate(50.534 6.51)">
    <circle id="Ellipse_82" data-name="Ellipse 82" cx="25.818" cy="25.818" r="25.818" transform="translate(0 36.512) rotate(-45)" fill="#ebb044"/>
  </g>
  <g id="Group_653" data-name="Group 653" transform="translate(64.603 21.713)">
    <path id="Path_709" data-name="Path 709" d="M325.132,173.5a25.822,25.822,0,0,1-37.071,34.043A25.82,25.82,0,1,0,325.132,173.5Z" transform="translate(-288.061 -173.498)" fill="#edbd31"/>
  </g>
  <g id="Group_654" data-name="Group 654" transform="translate(64.063 20.049)">
    <path id="Path_710" data-name="Path 710" d="M287.921,192.38a22.79,22.79,0,0,1,41.52-11.765,22.792,22.792,0,1,0-39.082,23.265A22.686,22.686,0,0,1,287.921,192.38Z" transform="translate(-286.326 -168.147)" fill="#f7db5e"/>
  </g>
  <path id="Path_711" data-name="Path 711" d="M192.033,286.114q-.147.06-.293.126a16.863,16.863,0,0,0-4.266,3.153c-1.966,1.8-2.94,2.6-3.585,5.128a60.206,60.206,0,0,0-1.223,7.236c-.624,4.888-.884,9.814-1.106,14.734-.123,2.725-.55,28.638-2.924,28.832l46.889-3.847c-.684-4.128-2.483-7.972-4.113-11.826a159.61,159.61,0,0,1-9.541-31.029c-.684-3.44-1.294-9.184-4.146-11.642-3.1-2.671-9.763-2.312-13.481-1.519A12.942,12.942,0,0,0,192.033,286.114Z" transform="translate(-148.059 -228.535)" fill="#00b5ee"/>
  <g id="Group_684" data-name="Group 684" transform="translate(16.575 99.77)">
    <g id="Group_683" data-name="Group 683" transform="translate(0 0)">
      <g id="Group_682" data-name="Group 682">
        <g id="Group_655" data-name="Group 655">
          <rect id="Rectangle_1024" data-name="Rectangle 1024" width="78.474" height="38.731" transform="matrix(0.99, -0.14, 0.14, 0.99, 0, 11.022)" fill="#c8d6a1"/>
        </g>
        <g id="Group_656" data-name="Group 656" transform="translate(1.836 1.754)">
          <path id="Path_712" data-name="Path 712" d="M218.725,465.61l-74.407,10.555-4.808-35.5.269-.038,74.163-10.46Zm-73.939,9.936,73.324-10.4-4.636-34.357-73.349,10.345Z" transform="translate(-139.51 -430.17)" fill="#fff"/>
        </g>
        <g id="Group_657" data-name="Group 657" transform="translate(65.695 2.063)">
          <path id="Path_713" data-name="Path 713" d="M344.878,432.57s8.507.588,10.353,10.683l2.322,17.828a4.9,4.9,0,0,1-2.9,4.831l-3.153,1.138,8.432-.987-4.709-34.9Z" transform="translate(-344.878 -431.164)" fill="#fff"/>
        </g>
        <g id="Group_658" data-name="Group 658" transform="translate(1.963 11.138)">
          <path id="Path_714" data-name="Path 714" d="M150.24,460.347s-8.007,2.931-6.973,13.141L146,491.259a4.9,4.9,0,0,0,4.134,3.832l3.345.216-8.374,1.4-5.183-34.831Z" transform="translate(-139.917 -460.347)" fill="#fff"/>
        </g>
        <g id="Group_659" data-name="Group 659" transform="translate(15.728 22.777)">
          <path id="Path_715" data-name="Path 715" d="M191.582,501.218a3.723,3.723,0,1,1-4.235-3.4A3.846,3.846,0,0,1,191.582,501.218Z" transform="translate(-184.184 -497.78)" fill="#fff"/>
        </g>
        <g id="Group_668" data-name="Group 668" transform="translate(14.3 33.134)">
          <g id="Group_660" data-name="Group 660" transform="translate(0 1.709)">
            <rect id="Rectangle_1025" data-name="Rectangle 1025" width="1.07" height="3.076" transform="translate(0 0.15) rotate(-8.074)" fill="#fff"/>
          </g>
          <g id="Group_661" data-name="Group 661" transform="translate(1.721 1.465)">
            <rect id="Rectangle_1026" data-name="Rectangle 1026" width="1.07" height="3.076" transform="translate(0 0.15) rotate(-8.073)" fill="#fff"/>
          </g>
          <g id="Group_662" data-name="Group 662" transform="translate(3.443 1.221)">
            <rect id="Rectangle_1027" data-name="Rectangle 1027" width="1.07" height="3.076" transform="translate(0 0.15) rotate(-8.074)" fill="#fff"/>
          </g>
          <g id="Group_663" data-name="Group 663" transform="translate(5.164 0.977)">
            <rect id="Rectangle_1028" data-name="Rectangle 1028" width="1.07" height="3.076" transform="translate(0 0.15) rotate(-8.074)" fill="#fff"/>
          </g>
          <g id="Group_664" data-name="Group 664" transform="translate(6.886 0.733)">
            <rect id="Rectangle_1029" data-name="Rectangle 1029" width="1.07" height="3.076" transform="matrix(0.99, -0.14, 0.14, 0.99, 0, 0.15)" fill="#fff"/>
          </g>
          <g id="Group_665" data-name="Group 665" transform="translate(8.607 0.488)">
            <rect id="Rectangle_1030" data-name="Rectangle 1030" width="1.07" height="3.076" transform="matrix(0.99, -0.14, 0.14, 0.99, 0, 0.15)" fill="#fff"/>
          </g>
          <g id="Group_666" data-name="Group 666" transform="translate(10.328 0.244)">
            <rect id="Rectangle_1031" data-name="Rectangle 1031" width="1.07" height="3.076" transform="translate(0 0.15) rotate(-8.074)" fill="#fff"/>
          </g>
          <g id="Group_667" data-name="Group 667" transform="translate(12.05 0)">
            <rect id="Rectangle_1032" data-name="Rectangle 1032" width="1.07" height="3.076" transform="matrix(0.99, -0.14, 0.14, 0.99, 0, 0.15)" fill="#fff"/>
          </g>
        </g>
        <g id="Group_677" data-name="Group 677" transform="translate(57.565 12.839)">
          <g id="Group_669" data-name="Group 669" transform="translate(0 1.709)">
            <rect id="Rectangle_1033" data-name="Rectangle 1033" width="1.07" height="0.961" transform="translate(0 0.15) rotate(-8.074)" fill="#fff"/>
          </g>
          <g id="Group_670" data-name="Group 670" transform="translate(1.721 1.465)">
            <rect id="Rectangle_1034" data-name="Rectangle 1034" width="1.07" height="0.961" transform="translate(0 0.15) rotate(-8.074)" fill="#fff"/>
          </g>
          <g id="Group_671" data-name="Group 671" transform="translate(3.443 1.221)">
            <rect id="Rectangle_1035" data-name="Rectangle 1035" width="1.07" height="0.961" transform="translate(0 0.15) rotate(-8.074)" fill="#fff"/>
          </g>
          <g id="Group_672" data-name="Group 672" transform="translate(5.164 0.977)">
            <rect id="Rectangle_1036" data-name="Rectangle 1036" width="1.07" height="0.961" transform="translate(0 0.15) rotate(-8.073)" fill="#fff"/>
          </g>
          <g id="Group_673" data-name="Group 673" transform="translate(6.886 0.733)">
            <rect id="Rectangle_1037" data-name="Rectangle 1037" width="1.07" height="0.961" transform="translate(0 0.15) rotate(-8.072)" fill="#fff"/>
          </g>
          <g id="Group_674" data-name="Group 674" transform="translate(8.607 0.488)">
            <rect id="Rectangle_1038" data-name="Rectangle 1038" width="1.07" height="0.961" transform="translate(0 0.15) rotate(-8.074)" fill="#fff"/>
          </g>
          <g id="Group_675" data-name="Group 675" transform="translate(10.328 0.244)">
            <rect id="Rectangle_1039" data-name="Rectangle 1039" width="1.07" height="0.961" transform="translate(0 0.15) rotate(-8.074)" fill="#fff"/>
          </g>
          <g id="Group_676" data-name="Group 676" transform="translate(12.05 0)">
            <rect id="Rectangle_1040" data-name="Rectangle 1040" width="1.07" height="0.961" transform="translate(0 0.15) rotate(-8.074)" fill="#fff"/>
          </g>
        </g>
        <g id="Group_678" data-name="Group 678" transform="translate(31.494 38.242)">
          <rect id="Rectangle_1041" data-name="Rectangle 1041" width="24.882" height="1.914" transform="translate(0 3.495) rotate(-8.074)" fill="#fff"/>
        </g>
        <g id="Group_681" data-name="Group 681" transform="translate(27.633 5.939)">
          <g id="Group_679" data-name="Group 679" transform="translate(1.812 1.086)">
            <path id="Path_716" data-name="Path 716" d="M242.933,482.487c-3.2.454-6.463-.978-9.184-4.032a24.448,24.448,0,0,1-3.521-24.824c1.764-3.69,4.5-5.973,7.7-6.427s6.463.978,9.184,4.032a24.449,24.449,0,0,1,3.521,24.825C248.869,479.75,246.135,482.033,242.933,482.487Zm-4.89-34.471c-6.1.865-9.984,9.118-8.667,18.4s7.346,16.126,13.442,15.262,9.983-9.118,8.667-18.4S244.139,447.151,238.043,448.015Z" transform="translate(-228.299 -447.121)" fill="#fff"/>
          </g>
          <g id="Group_680" data-name="Group 680" transform="translate(0 0)" opacity="0.2">
            <ellipse id="Ellipse_83" data-name="Ellipse 83" cx="11.575" cy="17.408" rx="11.575" ry="17.408" transform="translate(0 3.252) rotate(-8.074)" fill="#1a3151"/>
          </g>
        </g>
      </g>
    </g>
  </g>
  <g id="Group_685" data-name="Group 685" transform="translate(24.437 60.805)">
    <path id="Path_717" data-name="Path 717" d="M171.293,442.244a1.613,1.613,0,0,0,.185-.2c.521-.675.162-1.448.443-2.152.125-.314,1.015-.793.6-1.174-.153-.139-.627-.653-1.135-1.139-.249-.529-.522-1.048-.72-1.6-.5-1.392.08-4.922-1.936-5.165a3.328,3.328,0,0,0-1.172,0,2.869,2.869,0,0,0-.866.413c-.21.136-.577.3-.629.539s.234.827.305,1.08l.612,2.169a2.232,2.232,0,0,1-.128,2.108,3.611,3.611,0,0,0-.336.347,1.271,1.271,0,0,0-.173.513,8.659,8.659,0,0,0-.135,2.006c.076,1.193,1.694,2.137,2.562,2.731a1.76,1.76,0,0,0,.7.333,1.879,1.879,0,0,0,1.191-.38A3.767,3.767,0,0,0,171.293,442.244Z" transform="translate(-163.832 -389.858)" fill="#00b5ee"/>
    <path id="Path_718" data-name="Path 718" d="M160.144,325.417a10.6,10.6,0,0,0-1.095,2.6,9.49,9.49,0,0,0-.155,2.248,45.1,45.1,0,0,0,2.426,13.741,16.718,16.718,0,0,0,6.389-1.431,72.294,72.294,0,0,1-.238-11.5,8.745,8.745,0,0,1,.36-2.319,14.883,14.883,0,0,1,1.824-2.836c2.651-4.258,4.919-6.788,7.8-10.637,1.587-2.117,4.529-5.738,6.038-7.91,1.428-2.056-7.648-9.655-10.1-7.9C167.144,303.939,163.751,318.608,160.144,325.417Z" transform="translate(-158.889 -299.216)" fill="#00b5ee"/>
  </g>
  <g id="Group_689" data-name="Group 689" transform="translate(127.983 109.494)">
    <path id="Path_719" data-name="Path 719" d="M587.282,700.731a2.233,2.233,0,0,0-.642-1.044c-.163-.142-.35-.254-.509-.4-.747-.695-.662-1.359-1.761-1.209-1.251.171-2.5.4-3.743.6a.277.277,0,0,0-.14.05.3.3,0,0,0-.077.2l-.155,1.3c-.139,1.168-1.185,1.509-2.042,1.971-.221.119-.449.238-.682.361-.972.516-3.92,1.662-2.465,3.185a3.819,3.819,0,0,0,2.443.71,9.764,9.764,0,0,0,2.314-.213,23.729,23.729,0,0,0,6.915-2.367c.793-.423.742-1.62.671-2.47A3.235,3.235,0,0,0,587.282,700.731Z" transform="translate(-548.929 -622.726)" fill="#222323"/>
    <path id="Path_720" data-name="Path 720" d="M504.99,698.909a1.517,1.517,0,0,0-.2-.519c-.126-.192-.3-.344-.42-.54-.305-.5-.193-1.217-.568-1.667-.53-.636-1.429-.347-2.111-.3-1.049.068-2.118.016-3.169.025a.276.276,0,0,0-.146.028.3.3,0,0,0-.1.189l-.335,1.258c-.3,1.134-1.385,1.314-2.3,1.641-.234.084-.478.168-.725.255a7.092,7.092,0,0,0-2.588,1.119c-1.43,1.4,1.079,2.488,2.018,2.73a9.763,9.763,0,0,0,2.32.14,23.555,23.555,0,0,0,7.174-1.295,1.634,1.634,0,0,0,.651-.35,1.468,1.468,0,0,0,.315-.605A4.649,4.649,0,0,0,504.99,698.909Z" transform="translate(-491.889 -621.156)" fill="#222323"/>
    <g id="Group_688" data-name="Group 688" transform="translate(1.276 0)">
      <g id="Group_686" data-name="Group 686">
        <path id="Path_721" data-name="Path 721" d="M514.286,457.69,512.569,473.6l-2.431,29.353-2.408,29.076-7.689-.407-3.129-31.733-.92-26.918,2.936-17.168Z" transform="translate(-495.993 -455.8)" fill="#8c9193"/>
      </g>
      <g id="Group_687" data-name="Group 687" transform="translate(12.297 2.08)">
        <path id="Path_722" data-name="Path 722" d="M556.82,462.488l2.494,9.76-2.765,27.815L559.8,537.07l-7.3.618-9.477-35.4-7.477-38.732Z" transform="translate(-535.539 -462.488)" fill="#8c9193"/>
      </g>
    </g>
  </g>
  <path id="Path_723" data-name="Path 723" d="M521.188,322.5c-.06-1.816-.168-3.336-.183-3.879A140.334,140.334,0,0,0,519.73,303.8c-.6-4.479-1.368-8.969-2.2-13.48-1.3-7.075-2.48-13.309-5.085-20.038a25.116,25.116,0,0,0-3.471-6.812,12.677,12.677,0,0,0-5.87-3.83c-1.03-.345-2.188-.639-3.219-.872-1.167-.264-1.753.263-2.87.741-.751.322-1.632.407-2.411.68-4.623,1.621-7.263,4.884-8.828,9.517L482,280.893c-1.034,3.061-2.068,6.123-2.964,9.229a158.448,158.448,0,0,0-4.752,24.9c-.511,4.21-.929,8.431-1.332,12.653-.257,2.7,1.115,1.563,2.735.739,2.792-1.421,5.566-2.919,8.7-3.432a26.189,26.189,0,0,1,4.611-.239A83.754,83.754,0,0,1,516.58,329.5a4.846,4.846,0,0,1,1.482.753c.57.478,1.342,1.563,2.166,1,.512-.353.636-1.555.73-2.1A32.848,32.848,0,0,0,521.188,322.5Z" transform="translate(-350.839 -210.494)" fill="#00b5ee"/>
  <g id="Group_695" data-name="Group 695" transform="translate(136.528 22.834)">
    <g id="Group_690" data-name="Group 690" transform="translate(0.831 4.36)">
      <path id="Path_724" data-name="Path 724" d="M525.522,195.252a11.425,11.425,0,0,0-1.1,5.152,1.634,1.634,0,0,1-.361,1.314c-.386.318,0,.952-.325.571a8.68,8.68,0,0,1-1.5-2.21,18.945,18.945,0,0,1-.174-3.539,5.151,5.151,0,0,1,.816-2.922,5.71,5.71,0,0,1,1.368-1.177,7.244,7.244,0,0,1,2.309-1.2c1.458-.356,2.388.134,1.142,1.246A9.118,9.118,0,0,0,525.522,195.252Z" transform="translate(-522.043 -191.124)" fill="#1a3151"/>
    </g>
    <g id="Group_692" data-name="Group 692" transform="translate(2.245 4.458)">
      <g id="Group_691" data-name="Group 691">
        <path id="Path_725" data-name="Path 725" d="M538.821,215.077l-6.047.9a37.962,37.962,0,0,1-.813-5.371c-1.78-.215-3.883-.687-4.581-2.535a6.256,6.256,0,0,1-.3-1.855l-.452-7.807a7.679,7.679,0,0,1,.16-2.679,5.376,5.376,0,0,1,3.063-3.058,11.367,11.367,0,0,1,10.481.1,5.746,5.746,0,0,1,2.2,2.032,9.256,9.256,0,0,1,.776,4.818q-.043,2.293-.086,4.586c-.033,1.758-.19,3.789-1.48,4.784-.686.528-1.6.667-2.179,1.334C538.546,211.5,539.14,213.471,538.821,215.077Z" transform="translate(-526.59 -191.439)" fill="#eacdb0"/>
      </g>
    </g>
    <g id="Group_693" data-name="Group 693" transform="translate(2.065 16.864)">
      <path id="Path_726" data-name="Path 726" d="M526.3,235.245a6.388,6.388,0,0,0,2.59,3.953c1.522.955,3.371.932,5.118.882l2.867-.081c2.418-.068,4.8-.512,5.917-3.163a7.984,7.984,0,0,0,.472-3.959,2.594,2.594,0,0,0-.3-1.056.878.878,0,0,0-.859-.471c-.425.083-.658.566-.915.944a2.125,2.125,0,0,1-2.481.945,3.339,3.339,0,0,1-.719-.472c-.094-.074-.187-.148-.282-.218a6.113,6.113,0,0,0-3.193-1.068c-.97-.078-2.408-.364-3.081.508l-1.175,1.522a2.359,2.359,0,0,1-.542.562,1.538,1.538,0,0,1-.74.219,1.59,1.59,0,0,1-1.645-.878,3.346,3.346,0,0,1-.14-.915,1.472,1.472,0,0,0-.288-.858c-.759-.852-.895.574-.9,1.058A10.225,10.225,0,0,0,526.3,235.245Zm6.6.1a2.65,2.65,0,0,0,2.429.144c.429-.156.652.577.223.733a3.3,3.3,0,0,1-2.974-.194C532.185,235.79,532.5,235.105,532.9,235.348Z" transform="translate(-526.01 -231.338)" fill="#1a3151"/>
    </g>
    <g id="Group_694" data-name="Group 694" transform="translate(0 0)">
      <path id="Path_727" data-name="Path 727" d="M520.356,181.241a14.01,14.01,0,0,1-.47-1.9,3.684,3.684,0,0,0,1.859.064q-.026-.562-.053-1.123c-.013-.312,4.118-.747,4.453-.792,3.137-.428,6.006-.829,8.942.742a8.719,8.719,0,0,1,4.7,6.289,13.552,13.552,0,0,1-1.639,8.662,18.945,18.945,0,0,0,.093-3.142,6.235,6.235,0,0,0-.762-1.939,8.072,8.072,0,0,0-2.96-2.855,15.383,15.383,0,0,0-6.244-1.781,16.558,16.558,0,0,0-6.3.324c-.92.3-1.063.549-1.676-.378a16.458,16.458,0,0,1-.921-2.1Z" transform="translate(-519.37 -177.103)" fill="#1a3151"/>
    </g>
  </g>
  <path id="Path_728" data-name="Path 728" d="M398.057,654.119H389.7a3.28,3.28,0,0,1-3.282-3.277l-7.186-24.357a3.28,3.28,0,0,1,3.282-3.277l18.31,5.52A3.279,3.279,0,0,1,404.1,632l-2.764,18.838A3.28,3.28,0,0,1,398.057,654.119Z" transform="translate(-286.278 -461.658)" fill="#093096"/>
  <path id="Path_729" data-name="Path 729" d="M611.917,654.119h8.361a3.28,3.28,0,0,0,3.282-3.277l7.185-24.357a3.279,3.279,0,0,0-3.281-3.277l-18.31,5.52A3.279,3.279,0,0,0,605.872,632l2.764,18.838A3.279,3.279,0,0,0,611.917,654.119Z" transform="translate(-442.447 -461.658)" fill="#093096"/>
  <path id="Path_730" data-name="Path 730" d="M415.1,384.171V392.9h-8.079v-8.725c-33.737,1.743-51.234,25.343-51.234,52.333,0,28.047,24.747,50.784,55.274,50.784s55.274-22.737,55.274-50.784C466.337,409.514,448.871,385.912,415.1,384.171Z" transform="translate(-270.126 -296.95)" fill="#2661b5"/>
  <g id="Group_696" data-name="Group 696" transform="translate(88.993 81.897)">
    <path id="Path_731" data-name="Path 731" d="M371.288,367.053a.558.558,0,0,0-.523.254c-.111.176-10.975,17.807,2.4,35.831a.553.553,0,0,0,.722.149L399.054,388.7a.552.552,0,0,0,.227-.7C399.2,387.8,390.511,369,371.288,367.053Z" transform="translate(-366.499 -367.05)" fill="#2661b5"/>
    <path id="Path_732" data-name="Path 732" d="M615.356,367.307a.563.563,0,0,0-.523-.254C595.609,369,586.925,387.805,586.839,388a.552.552,0,0,0,.227.7l25.162,14.588a.553.553,0,0,0,.722-.149C626.329,385.114,615.466,367.484,615.356,367.307Z" transform="translate(-518.292 -367.051)" fill="#2661b5"/>
  </g>
  <ellipse id="Ellipse_84" data-name="Ellipse 84" cx="21.666" cy="16.177" rx="21.666" ry="16.177" transform="translate(119.271 130.383)" fill="#093096"/>
  <g id="Group_697" data-name="Group 697" transform="translate(89.464 92.339)">
    <path id="Path_733" data-name="Path 733" d="M411.117,405.947v-5.318c-24.295,2.63-43.1,20.8-43.1,42.822a39.7,39.7,0,0,0,10.2,26.3,38.981,38.981,0,0,1-6.536-21.506C371.674,427.344,388.619,409.914,411.117,405.947Z" transform="translate(-368.013 -400.629)" fill="#7ca2d1"/>
  </g>
  <path id="Path_734" data-name="Path 734" d="M398.866,547.655h0A57.284,57.284,0,0,0,440.745,565.3c30.527,0,55.274-22.737,55.274-50.784a57.824,57.824,0,0,0-2.526-17.131C474.012,579.84,398.866,547.655,398.866,547.655Z" transform="translate(-299.809 -374.958)" fill="#093096"/>
  <path id="Path_735" data-name="Path 735" d="M522.329,567.024c-9.858,16.162-27.283,15.209-36.138,14.342a26,26,0,0,0,14.726,4.315c11.966,0,21.666-7.243,21.666-16.177A12.272,12.272,0,0,0,522.329,567.024Z" transform="translate(-359.98 -422.945)" fill="#093096"/>
  <path id="Path_736" data-name="Path 736" d="M376.491,375.566s-4.837,5.044-4.516,17.867c0,0,1.59-13.531,8.351-17.173Z" transform="translate(-281.269 -291.021)" fill="#7ca2d1"/>
  <path id="Path_737" data-name="Path 737" d="M468.929,544.539s1.771-10.068,13.322-12.49A34.087,34.087,0,0,0,468.929,544.539Z" transform="translate(-348.086 -398.846)" fill="#7ca2d1"/>
  <g id="Group_700" data-name="Group 700" transform="translate(130.678 142.37)">
    <g id="Group_698" data-name="Group 698" transform="translate(0 0)">
      <path id="Path_738" data-name="Path 738" d="M504.506,564.851c0,1.836-.884,3.323-1.974,3.323s-1.974-1.488-1.974-3.323.884-3.323,1.974-3.323S504.506,563.016,504.506,564.851Z" transform="translate(-500.558 -561.528)" fill="#000b1c"/>
    </g>
    <g id="Group_699" data-name="Group 699" transform="translate(16.568 0)">
      <path id="Path_739" data-name="Path 739" d="M557.789,564.851c0,1.836-.884,3.323-1.974,3.323s-1.974-1.488-1.974-3.323.884-3.323,1.974-3.323S557.789,563.016,557.789,564.851Z" transform="translate(-553.841 -561.528)" fill="#000b1c"/>
    </g>
  </g>
  <path id="Path_740" data-name="Path 740" d="M528.941,379.4a1.27,1.27,0,0,0,.584-.032,1.661,1.661,0,0,0,.471-.359,3.435,3.435,0,0,1,3.374-.474,7.222,7.222,0,0,1,2.7,1.668c.7.735.716,2.154.823,3.154a1.605,1.605,0,0,1-.052.784,1.672,1.672,0,0,1-.289.423l-.517.609c-.932,1.1-2.68.707-3.978.725-.569.007-1.266-.062-1.5-.583-.185-.421.011-1.019-.357-1.295a.96.96,0,0,0-.608-.122l-6.69.158c-.038-1.235-.717-4.591.431-5.028a15.264,15.264,0,0,1,2.48.206Q527.379,379.243,528.941,379.4Z" transform="translate(-385.114 -292.905)" fill="#eacdb0"/>
  <path id="Path_741" data-name="Path 741" d="M460.77,298.914c-1.539,2.815-3.388,5.958-3.949,9.16a4.914,4.914,0,0,0,2.457,4.729c1.945,1.25,4.041.915,6.256.823,1.348-.056,15.635-.825,15.634-1.456q0-4.079-.007-8.158-5.41-1.063-10.9-1.588c2.733-4.085,18.236-28.314,11.024-31.062C474.416,268.745,463.466,293.986,460.77,298.914Z" transform="translate(-339.705 -219.088)" fill="#00b5ee"/>
  <text id="_" data-name="₹" transform="matrix(0.996, 0.087, -0.087, 0.996, 75.069, 56.524)" fill="#c4913f" font-size="43" font-family="MyriadPro-Regular, Myriad Pro"><tspan x="0" y="0">₹</tspan></text>
</svg>
